<svg width="10" height="12" viewBox="0 0 10 12" fill="none" xmlns="http://www.w3.org/2000/svg">
<path fill-rule="evenodd" clip-rule="evenodd" d="M5.93346 0C6.37528 0 6.73345 0.358168 6.73345 0.799993C6.73345 1.02091 6.91253 1.19999 7.13345 1.19999H7.20011H9.0001C9.33147 1.19999 9.6001 1.46862 9.6001 1.79999C9.6001 2.13136 9.33147 2.39999 9.0001 2.39999H7.20011H7.13345H2.46776H2.4668H2.40014H0.600153C0.268775 2.39999 0.000156403 2.13136 0.000156403 1.79999C0.000156403 1.46862 0.268775 1.19999 0.600153 1.19999H2.46728C2.68796 1.19973 2.86682 1.02075 2.86682 0.799993C2.86682 0.358168 3.22496 0 3.66679 0H5.93346Z" fill="#A1E1D3"/>
<path fill-rule="evenodd" clip-rule="evenodd" d="M8.40049 3.6001C8.56828 3.6001 8.7284 3.67036 8.84202 3.79383C8.95563 3.9173 9.01235 4.08271 8.99841 4.24992L8.53596 9.79938C8.4323 11.0433 7.39247 12 6.14427 12H3.45676C2.20853 12 1.16874 11.0433 1.06506 9.79938L0.60264 4.24992C0.58866 4.08271 0.64542 3.9173 0.759 3.79383C0.872639 3.67036 1.03272 3.6001 1.20054 3.6001H8.40049Z" fill="#A1E1D3"/>
</svg>
